<?xml version="1.0" encoding="UTF-8" standalone="no"?>
<!DOCTYPE svg PUBLIC "-//W3C//DTD SVG 1.1//EN" "http://www.w3.org/Graphics/SVG/1.1/DTD/svg11.dtd">
<svg width="100%" height="100%" viewBox="0 0 800 800" version="1.1" xmlns="http://www.w3.org/2000/svg" xmlns:xlink="http://www.w3.org/1999/xlink" xml:space="preserve" xmlns:serif="http://www.serif.com/" style="fill-rule:evenodd;clip-rule:evenodd;stroke-linejoin:round;stroke-miterlimit:2;">
  <g id="Layer_2">
    <g id="Layer_1-2">
      <path d="M0,456.514c-1.423,-64.246 15.648,-124.867 34.234,-185.212c3.866,-12.548 9.622,-24.432 17.071,-35.244c39.282,-56.307 84.529,-107.658 143.085,-144.232c36.391,-22.67 71.772,-49.194 116.193,-56.169c17.943,-2.8 35.244,-9.821 53.141,-13.446c67.917,-13.492 132.163,-1.056 196.776,22.486c94.717,34.463 166.214,94.441 213.71,181.908c39.924,73.424 31.297,148.224 -10.922,217.564c-23.725,38.869 -62.869,62.823 -105.547,79.252c-35.733,13.452 -73.207,21.72 -111.283,24.551c-31.435,2.708 -62.869,5.002 -94.304,7.434c-30.425,2.387 -59.657,8.903 -86.457,24.368c-18.607,10.025 -33.912,25.235 -44.054,43.779c-19.549,37.538 -11.106,71.221 12.574,102.794c7.801,10.417 11.243,19.87 6.47,32.444c-2.875,8.819 -9.648,15.847 -18.356,19.044c-13.455,5.512 -28.254,6.887 -42.494,3.947c-86.273,-18.402 -160.523,-58.418 -216.233,-127.253c-38.778,-48.139 -62.916,-103.253 -63.604,-166.489l-0,-31.526Zm282.545,278.368c-3.488,-8.627 -4.589,-12.344 -6.471,-15.832c-33.224,-66.081 -9.178,-144.966 55.619,-179.476c33.453,-18.53 70.667,-29.261 108.851,-31.388c38.08,-1.694 76.05,-5.324 113.761,-10.876c24.689,-3.647 48.888,-10.067 72.139,-19.136c69.936,-27.534 118.167,-72.965 119.314,-154.328c0,-7.848 0.964,-15.741 0.872,-23.634c-0.198,-22.419 -6.19,-44.411 -17.392,-63.833c-30.429,-54.127 -74.802,-99.134 -128.492,-130.327c-30.93,-18.356 -64.246,-29.553 -98.526,-39.144c-69.202,-19.32 -136.064,-8.674 -200.126,18.585c-55.764,24.043 -105.685,59.844 -146.343,104.95c-29.37,32.123 -56.95,65.394 -70.396,108.117c-18.356,57.913 -31.847,116.194 -30.975,177.732c0.224,38.154 8.121,75.876 23.22,110.916c16.755,37.208 42.339,69.771 74.525,94.855c36.988,30.149 80.354,42.31 130.511,52.819l-0.091,0Z" style="fill-rule:nonzero;"/>
      <path d="M282.636,734.882c-50.157,-10.509 -93.523,-22.67 -130.511,-52.636c-32.209,-25.135 -57.795,-57.764 -74.525,-95.038c-15.099,-35.04 -22.996,-72.762 -23.22,-110.916c-0.872,-61.538 12.711,-119.819 30.975,-177.732c13.446,-42.723 41.026,-76.085 70.396,-108.117c40.658,-45.106 90.579,-80.907 146.343,-104.95c64.246,-27.075 130.924,-37.722 200.126,-18.356c34.326,9.591 67.596,20.88 98.526,39.144c53.69,31.194 98.063,76.2 128.492,130.328c11.202,19.421 17.194,41.413 17.392,63.833c-0,7.893 -0.78,15.786 -0.872,23.633c-0.964,81.363 -49.194,126.794 -119.314,154.328c-23.251,9.07 -47.45,15.489 -72.139,19.136c-37.715,5.476 -75.685,9.029 -113.761,10.647c-38.171,2.211 -75.353,13.02 -108.759,31.618c-64.889,34.509 -88.843,113.394 -55.619,179.476c1.744,3.258 2.983,6.975 6.47,15.602Z" style="fill:#fff;fill-rule:nonzero;"/>
    </g>
  </g>
</svg>
